<svg width="199" height="60" viewBox="0 0 199 80" fill="none" xmlns="http://www.w3.org/2000/svg">
<path d="M25.344 34.096C24.576 34.9067 23.7013 35.504 22.72 35.888C26.9013 36.4853 30.08 37.9787 32.256 40.368C34.432 42.7147 35.52 45.5947 35.52 49.008C35.52 53.1467 33.856 56.496 30.528 59.056C27.2 61.616 22.8267 62.896 17.408 62.896C11.9893 62.896 7.744 61.5733 4.672 58.928C1.6 56.24 0.064 52.464 0.064 47.6C0.064 47.344 0.064 47.088 0.064 46.832L0.768 46.704C1.62133 53.0613 4.26667 57.1787 8.704 59.056V21.808C8.61867 20.656 8.17067 19.7173 7.36 18.992C6.592 18.224 5.65333 17.84 4.544 17.84H3.776V17.2H14.528C18.5387 17.2 21.7387 18.1173 24.128 19.952C26.56 21.7867 27.776 24.1973 27.776 27.184C27.776 30.128 26.9653 32.432 25.344 34.096ZM12.864 19.248V60.208C14.272 60.4213 15.8933 60.528 17.728 60.528C21.824 60.528 25.0027 59.44 27.264 57.264C29.568 55.0453 30.72 52.1867 30.72 48.688C30.72 46.8107 30.3573 45.1467 29.632 43.696C28.9493 42.2453 28.0747 41.1147 27.008 40.304C24.192 38.128 20.224 37.04 15.104 37.04C15.0613 37.04 15.04 37.04 15.04 37.04L14.976 36.464C15.0187 36.464 15.04 36.464 15.04 36.464C17.216 36.464 19.072 35.76 20.608 34.352C22.1867 32.9013 22.976 30.6827 22.976 27.696C22.976 22.064 19.8827 19.248 13.696 19.248H12.864ZM58.608 61.36H59.44V62H45.424V61.36H46.256C47.3653 61.36 48.3253 60.976 49.136 60.208C49.9467 59.3973 50.352 58.4373 50.352 57.328V18.928L43.504 19.312C39.1947 19.568 37.04 21.1253 37.04 23.984C37.04 25.136 37.4027 26.1173 38.128 26.928C38.896 27.7387 40.0907 28.1867 41.712 28.272V28.656C41.1147 28.784 40.5173 28.848 39.92 28.848C38.0427 28.848 36.6347 28.1013 35.696 26.608C35.1413 25.7547 34.864 24.816 34.864 23.792C34.864 20.1653 37.616 18.0533 43.12 17.456C43.1627 17.456 45.2747 17.328 49.456 17.072C53.68 16.7733 57.008 16.3893 59.44 15.92L59.568 16.56C57.7333 16.8587 56.432 17.4773 55.664 18.416C54.896 19.3547 54.512 20.656 54.512 22.32V57.328C54.5547 58.4373 54.96 59.3973 55.728 60.208C56.5387 60.976 57.4987 61.36 58.608 61.36ZM66.547 61.36C67.6563 61.36 68.595 60.976 69.363 60.208C70.1737 59.3973 70.6003 58.4373 70.643 57.328V21.488C70.643 20.464 70.2377 19.6107 69.427 18.928C68.6163 18.2027 67.6563 17.84 66.547 17.84H65.779L65.715 17.2H78.707C80.0297 17.2 81.459 17.072 82.995 16.816C84.5737 16.56 85.683 16.304 86.323 16.048V24.112H85.683V22.96C85.683 21.936 85.3203 21.0613 84.595 20.336C83.9123 19.6107 83.0803 19.2267 82.099 19.184H74.803V38.96H86.963C87.8163 38.9173 88.5417 38.5973 89.139 38C89.7363 37.4027 90.035 36.656 90.035 35.76V34.864H90.675V44.976H90.035V44.016C90.035 43.1627 89.7363 42.4373 89.139 41.84C88.5843 41.2427 87.8803 40.9227 87.027 40.88H74.803V60.016H88.435C91.5923 60.016 94.003 59.312 95.667 57.904C97.331 56.496 98.7177 54.4053 99.827 51.632H100.467L96.755 62H65.715V61.36H66.547ZM160.797 72.88C159.005 73.3493 157.405 73.584 155.997 73.584C154.632 73.584 153.416 73.4987 152.349 73.328C151.282 73.1573 150.13 72.816 148.893 72.304C147.698 71.8347 146.568 71.28 145.501 70.64C144.434 70 143.368 69.2107 142.301 68.272C140.338 66.6933 138.546 64.9867 136.925 63.152C135.346 61.3173 132.274 57.8827 127.709 52.848C123.144 47.7707 120.114 44.4 118.621 42.736C117.128 41.072 115.976 40.1973 115.165 40.112V39.472C117.64 39.472 119.282 39.4293 120.093 39.344C120.946 39.216 121.842 39.024 122.781 38.768C123.72 38.4693 124.509 38.0853 125.149 37.616C127.666 35.9947 128.925 33.3067 128.925 29.552C128.925 26.4373 128.221 23.9413 126.813 22.064C125.448 20.1867 123.506 19.2267 120.989 19.184H113.053V57.328C113.053 58.3947 113.437 59.3333 114.205 60.144C115.016 60.9547 115.997 61.36 117.149 61.36H117.917L117.981 62H103.965V61.36H104.797C105.864 61.36 106.802 60.976 107.613 60.208C108.424 59.44 108.85 58.5013 108.893 57.392V21.872C108.85 20.7627 108.424 19.824 107.613 19.056C106.845 18.2453 105.906 17.84 104.797 17.84H103.965V17.2H121.245C125 17.2 128.008 18.2667 130.269 20.4C132.573 22.4907 133.725 25.2853 133.725 28.784C133.725 32.24 132.68 35.2267 130.589 37.744C128.498 40.2187 125.938 41.456 122.909 41.456C122.909 41.456 122.888 41.456 122.845 41.456C124.296 42.992 125.938 44.784 127.773 46.832C135.154 54.9813 139.89 60.1013 141.981 62.192C144.072 64.2827 145.906 65.9893 147.485 67.312C149.106 68.6773 150.536 69.68 151.773 70.32C154.29 71.6853 156.786 72.368 159.261 72.368C159.773 72.368 160.285 72.3253 160.797 72.24V72.88ZM156.728 32.112C156.557 31.5573 156.472 31.088 156.472 30.704C156.472 30.2773 156.493 29.808 156.536 29.296C156.579 28.784 156.664 28.08 156.792 27.184C156.963 26.288 157.261 25.4133 157.688 24.56C158.115 23.664 158.605 22.8107 159.16 22C159.715 21.1893 160.419 20.4427 161.272 19.76C162.168 19.0773 163.149 18.48 164.216 17.968C166.477 16.8587 169.229 16.304 172.472 16.304C179 16.304 184.312 18.48 188.408 22.832C192.547 27.1413 194.616 32.6667 194.616 39.408C194.616 46.1493 192.184 51.76 187.32 56.24C182.456 60.6773 176.291 62.896 168.824 62.896C161.357 62.896 155.149 60.6773 150.2 56.24C145.293 51.8027 142.84 46.0427 142.84 38.96C142.84 34.3947 143.907 30.3413 146.04 26.8C148.173 23.2587 151.224 20.4853 155.192 18.48L155.576 19.056C152.803 20.8907 150.797 23.536 149.56 26.992C148.365 30.448 147.768 34.1173 147.768 38C147.768 45.2107 149.731 50.8427 153.656 54.896C157.581 58.9493 162.616 60.976 168.76 60.976C174.904 60.976 179.917 58.9493 183.8 54.896C187.725 50.8 189.688 45.424 189.688 38.768C189.688 33.008 188.131 28.144 185.016 24.176C181.944 20.208 177.592 18.224 171.96 18.224C169.443 18.224 167.16 18.672 165.112 19.568C161.4 21.1467 158.947 23.7493 157.752 27.376C157.411 28.4427 157.24 29.36 157.24 30.128C157.24 30.896 157.283 31.5147 157.368 31.984L156.728 32.112Z" fill="white"/>
</svg>
