<svg xmlns="http://www.w3.org/2000/svg" version="1.1" xmlns:xlink="http://www.w3.org/1999/xlink" xmlns:svgjs="http://svgjs.dev/svgjs" width="150" height="70" viewBox="0 0 1500 935"><g transform="matrix(1,0,0,1,-0.9090909090909918,0.3785425101215196)"><svg viewBox="0 0 396 247" data-background-color="#0c0c14" preserveAspectRatio="xMidYMid meet" height="935" width="1500" xmlns="http://www.w3.org/2000/svg" xmlns:xlink="http://www.w3.org/1999/xlink"><g id="tight-bounds" transform="matrix(1,0,0,1,0.2400000000000091,-0.09999999999999432)"><svg viewBox="0 0 395.52 247.2" height="247.2" width="395.52"><g><svg></svg></g><g><svg viewBox="0 0 395.52 247.2" height="247.2" width="395.52"><g transform="matrix(1,0,0,1,75.54432,94.43670452352407)"><svg viewBox="0 0 244.43135999999998 58.32659095295185" height="58.32659095295185" width="244.43135999999998"><g><svg viewBox="0 0 244.43135999999998 58.32659095295185" height="58.32659095295185" width="244.43135999999998"><g><svg viewBox="0 0 335.55794271241064 80.07135772431502" height="58.32659095295185" width="244.43135999999998"><g transform="matrix(1,0,0,1,0,7.115932396102465)"><svg viewBox="0 0 244.43135999999998 65.83949293211009" height="65.83949293211009" width="244.43135999999998"><g id="textblocktransform"><svg viewBox="0 0 244.43135999999998 65.83949293211009" height="65.83949293211009" width="244.43135999999998" id="textblock"><g><svg viewBox="0 0 244.43135999999998 65.83949293211009" height="65.83949293211009" width="244.43135999999998"><g transform="matrix(1,0,0,1,0,0)"><svg width="244.43135999999998" viewBox="2 -36 137.24 37.7" height="65.83949293211009" data-palette-color="#d6ebe0"><path d="M7.65-35L7.65-35 12.95-35Q16.45-35 18.88-33.95 21.3-32.9 22.55-31.03 23.8-29.15 23.8-26.65L23.8-26.65Q23.8-24.55 23-22.98 22.2-21.4 20.95-20.43 19.7-19.45 18.3-19.05L18.3-19.05Q20.95-18.65 22.88-17.3 24.8-15.95 25.83-13.93 26.85-11.9 26.85-9.4L26.85-9.4Q26.85-6.6 25.5-4.48 24.15-2.35 21.53-1.18 18.9 0 15.2 0L15.2 0 9.65 0Q9.65 0 9.68-0.45 9.7-0.9 9.7-1.35 9.7-1.8 9.7-1.8L9.7-1.8 15-1.8Q17.6-1.8 19.4-2.73 21.2-3.65 22.15-5.45 23.1-7.25 23.1-9.75L23.1-9.75Q23.1-12.55 22.03-14.3 20.95-16.05 19.25-16.95 17.55-17.85 15.58-18.18 13.6-18.5 11.8-18.5L11.8-18.5 11.8-18.95Q12.95-18.95 14.35-19.2 15.75-19.45 17.05-20.2 18.35-20.95 19.2-22.43 20.05-23.9 20.05-26.3L20.05-26.3Q20.05-28.55 19.23-30.15 18.4-31.75 16.78-32.58 15.15-33.4 12.75-33.4L12.75-33.4 8.15-33.4Q8.15-33.45 8.03-33.83 7.9-34.2 7.78-34.6 7.65-35 7.65-35ZM6.85-35L10.1-35 10.1 0 6.85 0 6.85-35ZM6.85-3.65L7-3.65 7 0 3 0 3.05-0.5Q3.15-0.5 3.38-0.5 3.6-0.5 3.65-0.5L3.65-0.5Q4.95-0.5 5.9-1.43 6.85-2.35 6.85-3.65L6.85-3.65ZM7-35L7-31.35 6.85-31.35Q6.85-32.65 5.9-33.58 4.95-34.5 3.65-34.5L3.65-34.5Q3.6-34.5 3.38-34.5 3.15-34.5 3.05-34.5L3.05-34.5 3-35 7-35ZM35.65-30L38.8-30 38.8 0 35.65 0 35.65-30ZM35.65-3.2L35.8-3.2 35.8 0 31.55 0 31.55-0.5Q31.55-0.5 31.9-0.5 32.25-0.5 32.25-0.5L32.25-0.5Q33.65-0.5 34.62-1.3 35.6-2.1 35.65-3.2L35.65-3.2ZM38.65 0L38.65-3.2 38.8-3.2Q38.85-2.1 39.82-1.3 40.8-0.5 42.2-0.5L42.2-0.5Q42.2-0.5 42.52-0.5 42.85-0.5 42.85-0.5L42.85-0.5 42.9 0 38.65 0ZM38.8-26.8L38.65-26.8 38.65-30 42.9-30 42.85-29.5Q42.85-29.5 42.52-29.5 42.2-29.5 42.2-29.5L42.2-29.5Q40.8-29.5 39.82-28.73 38.85-27.95 38.8-26.8L38.8-26.8ZM35.8-30L35.8-26.8 35.65-26.8Q35.6-27.95 34.62-28.73 33.65-29.5 32.25-29.5L32.25-29.5Q32.2-29.5 31.87-29.5 31.55-29.5 31.55-29.5L31.55-29.5 31.55-30 35.8-30ZM51.95-30L55.14-30 55.14 0 51.95 0 51.95-30ZM55.05-1.55L68.59-1.55 68.5 0 55.05 0 55.05-1.55ZM55.05-15.75L66.25-15.75 66.25-14.25 55.05-14.25 55.05-15.75ZM55.05-30L68.55-30 68.55-28.45 55.05-28.45 55.05-30ZM70.89-7.15L71.39-7.15 68.64 0 61.05 0 62.75-1.55Q65.25-1.55 66.77-2.27 68.3-3 69.25-4.28 70.19-5.55 70.89-7.15L70.89-7.15ZM63.64-14.35L66.25-14.35 66.25-11.5 65.69-11.5 65.69-12.15Q65.69-13 65.19-13.63 64.69-14.25 63.64-14.25L63.64-14.25 63.64-14.35ZM65.69-18.5L66.25-18.5 66.25-15.65 63.64-15.65 63.64-15.75Q64.69-15.75 65.19-16.38 65.69-17 65.69-17.85L65.69-17.85 65.69-18.5ZM65.5-28.6L68.55-28.6 68.55-25.15 68-25.15 68-25.9Q68-26.95 67.32-27.7 66.64-28.45 65.5-28.45L65.5-28.45 65.5-28.6ZM68.55-30.8L68.55-30.8 68.55-29.5 62.84-30Q64.39-30 66.14-30.28 67.89-30.55 68.55-30.8ZM51.95-3.2L52.05-3.2 52.7 0 48.34 0 48.34-0.5Q48.34-0.5 48.7-0.5 49.05-0.5 49.05-0.5L49.05-0.5Q50.3-0.5 51.09-1.3 51.89-2.1 51.95-3.2L51.95-3.2ZM52.7-30L52.05-26.85 51.95-26.85Q51.89-28 51.09-28.75 50.3-29.5 49.05-29.5L49.05-29.5Q49.05-29.5 48.7-29.5 48.34-29.5 48.34-29.5L48.34-29.5 48.34-30 52.7-30ZM81.24-30L81.24-30 87.69-30Q90.04-30 91.92-29.45 93.79-28.9 95.12-27.85 96.44-26.8 97.14-25.3 97.84-23.8 97.84-21.9L97.84-21.9Q97.84-19.8 96.84-18 95.84-16.2 94.07-15.05 92.29-13.9 90.04-13.65L90.04-13.65Q90.89-13.3 92.02-12.1 93.14-10.9 93.94-9.75L93.94-9.75Q93.94-9.75 94.59-8.88 95.24-8 96.27-6.73 97.29-5.45 98.29-4.3L98.29-4.3Q99.34-3.15 100.22-2.3 101.09-1.45 102.12-0.98 103.14-0.5 104.49-0.5L104.49-0.5 104.49 0 102.94 0Q100.19 0 98.42-0.7 96.64-1.4 95.54-2.43 94.44-3.45 93.64-4.4L93.64-4.4Q93.44-4.65 92.72-5.68 91.99-6.7 91.14-7.9 90.29-9.1 89.59-10.08 88.89-11.05 88.74-11.25L88.74-11.25Q87.74-12.55 86.44-13.58 85.14-14.6 83.69-14.6L83.69-14.6 83.69-15.1Q83.69-15.1 84.49-15.08 85.29-15.05 86.54-15.1L86.54-15.1Q87.94-15.15 89.34-15.33 90.74-15.5 91.97-16.4 93.19-17.3 93.89-19.4L93.89-19.4Q94.09-19.95 94.19-20.7 94.29-21.45 94.24-22.25L94.24-22.25Q94.19-23.65 93.72-24.75 93.24-25.85 92.37-26.65 91.49-27.45 90.29-27.9 89.09-28.35 87.59-28.4L87.59-28.4Q85.24-28.5 83.49-28.45 81.74-28.4 81.74-28.45L81.74-28.45Q81.74-28.5 81.62-28.88 81.49-29.25 81.37-29.63 81.24-30 81.24-30ZM78.64-30L81.84-30 81.84 0 78.64 0 78.64-30ZM78.69-3.2L78.79-3.2 79.39 0 75.14 0 75.14-0.5Q75.14-0.5 75.49-0.5 75.84-0.5 75.84-0.5L75.84-0.5Q77.04-0.5 77.84-1.3 78.64-2.1 78.69-3.2L78.69-3.2ZM79.39-30L78.79-26.85 78.69-26.85Q78.64-28 77.84-28.75 77.04-29.5 75.84-29.5L75.84-29.5Q75.84-29.5 75.49-29.5 75.14-29.5 75.14-29.5L75.14-29.5 75.14-30 79.39-30ZM81.09 0L81.69-3.2 81.84-3.2Q81.89-2.1 82.69-1.3 83.49-0.5 84.69-0.5L84.69-0.5Q84.69-0.5 85.02-0.5 85.34-0.5 85.34-0.5L85.34-0.5 85.39 0 81.09 0ZM121.34-30.7L121.34-30.7Q124.84-30.7 127.92-29.58 130.99-28.45 133.31-26.35 135.64-24.25 136.94-21.38 138.24-18.5 138.24-15L138.24-15Q138.24-11.5 136.94-8.63 135.64-5.75 133.31-3.65 130.99-1.55 127.92-0.43 124.84 0.7 121.34 0.7L121.34 0.7Q117.84 0.7 114.79-0.43 111.74-1.55 109.42-3.65 107.09-5.75 105.79-8.63 104.49-11.5 104.49-15L104.49-15Q104.49-18.5 105.79-21.38 107.09-24.25 109.42-26.35 111.74-28.45 114.79-29.58 117.84-30.7 121.34-30.7ZM121.34-0.8L121.34-0.8Q125.04-0.8 128.04-2.6 131.04-4.4 132.79-7.6 134.54-10.8 134.54-15L134.54-15Q134.54-19.25 132.79-22.43 131.04-25.6 128.04-27.4 125.04-29.2 121.34-29.2L121.34-29.2Q117.69-29.2 114.69-27.4 111.69-25.6 109.94-22.43 108.19-19.25 108.19-15L108.19-15Q108.19-10.8 109.94-7.6 111.69-4.4 114.69-2.6 117.69-0.8 121.34-0.8Z" opacity="1" transform="matrix(1,0,0,1,0,0)" fill="#d6ebe0" class="wordmark-text-0" data-fill-palette-color="primary" id="text-0"></path></svg></g></svg></g></svg></g></svg></g><g transform="matrix(1,0,0,1,259.5509657646822,0)"><svg viewBox="0 0 76.00697694772845 80.07135772431502" height="80.07135772431502" width="76.00697694772845"><g><svg xmlns="http://www.w3.org/2000/svg" xmlns:xlink="http://www.w3.org/1999/xlink" version="1.1" x="0" y="0" viewBox="6.400425916435133 8.140015641132816 87.19816822139181 91.86098435886719" enable-background="new 0 0 100 100" xml:space="preserve" width="76.00697694772845" height="80.07135772431502" class="icon-icon-0" data-fill-palette-color="accent" id="icon-0"><path fill="#acceaa" d="M54.188 49.575c3.549-3.083 35.059-33.914 35.059-33.914 1.301-1.261 2.621-1.89 3.699-0.938 1.053 0.926 0.73 2.163-0.246 3.23 0 0-35.676 37.602-38.709 41.391-1.246 1.555-1.374 1.883-1.315 3.432 0.055 1.55 0.884 28.354 0.884 28.354 0.07 1.605 0.19 2.094 0.812 2.793 0.665 0.654 2.983 0.957 4.562 1.277 3.377 0.682 12.59 2.258 12.59 2.258 1.119 0.045 1.959 0.369 1.992 1.254 0.033 0.861-0.658 1.273-1.549 1.289 0 0-14.119-0.654-21.966-0.654-7.848 0-21.966 0.654-21.966 0.654-0.892-0.016-1.583-0.428-1.549-1.289 0.033-0.885 0.874-1.209 1.992-1.254 0 0 9.213-1.576 12.59-2.258 1.579-0.32 3.896-0.623 4.561-1.277 0.622-0.699 0.744-1.188 0.813-2.793 0 0 0.83-26.804 0.885-28.354 0.059-1.549-0.069-1.877-1.317-3.432C42.975 55.555 7.298 17.953 7.298 17.953c-0.976-1.067-1.297-2.305-0.245-3.23 1.078-0.951 2.397-0.322 3.698 0.938 0 0 31.51 30.831 35.059 33.914 1.968 1.71 2.677 2.114 4.189 2.161C51.514 51.689 52.223 51.285 54.188 49.575zM64.495 18.839c-0.824 0-1.951-0.084-3.26-0.218-0.986 4.297-3.918 8.277-6.64 11.207 1.63 1.648 3.614 4.422 0.211 7.941l-0.238 0.248c-3.598 3.729-7.342 1.764-8.826 0.327l-0.552-0.539c-1.485-1.427-3.577-5.1 0.019-8.823l0.241-0.247c2.874-2.98 5.345-2.081 7.07-0.788-0.662 1.396-1.133 2.379-1.403 2.939-0.176 0.365 0.135 0.152 0.135 0.152l2.721-2.658c2.617-2.98 4.655-6.49 5.325-9.98 0.734-3.203 0.395-6.58-1.943-9.83-0.35-0.473-0.98-0.563-1.441-0.234-0.464 0.332-0.564 0.976-0.233 1.439 1.845 2.562 2.241 5.459 1.687 8.373-8.57-1.17-20.696-3.421-23.026-3.421-5.475 0-15.157 2.087-15.157 2.087 10.178 9.939 29.776 28.756 29.776 28.754 0.281 0.246 0.639 0.409 1.041 0.409 0.457 0 0.866-0.199 1.159-0.51 3.136-2.831 19.428-18.726 29.596-28.653C79.288 17.213 70.003 18.839 64.495 18.839z" data-fill-palette-color="accent"></path></svg></g></svg></g></svg></g></svg></g></svg></g><g><path d="M245.816 0c68.262 0 123.6 55.338 123.6 123.6 0 68.262-55.338 123.6-123.6 123.6-56.226 0-103.684-37.544-118.672-88.93l2.194 0c14.922 50.209 61.424 86.826 116.478 86.826 67.101 0 121.496-54.396 121.496-121.496 0-67.101-54.396-121.496-121.496-121.496-55.054 0-101.555 36.618-116.478 86.826l-2.194 0c14.987-51.386 62.445-88.93 118.672-88.93z" fill="#f4dcfe" stroke="transparent" data-fill-palette-color="tertiary"></path></g></svg></g><defs></defs></svg><rect width="395.52" height="247.2" fill="none" stroke="none" visibility="hidden"></rect></g></svg></g></svg>
